<?xml version="1.0" standalone="no"?>
<!DOCTYPE svg PUBLIC "-//W3C//DTD SVG 20010904//EN"
 "http://www.w3.org/TR/2001/REC-SVG-20010904/DTD/svg10.dtd">
<svg version="1.0" xmlns="http://www.w3.org/2000/svg"
 width="500.000000pt" height="500.000000pt" viewBox="0 0 500.000000 500.000000"
 preserveAspectRatio="xMidYMid meet">

<g transform="translate(0.000000,500.000000) scale(0.100000,-0.100000)"
fill="#000000" stroke="none">
<path d="M1880 4763 c-390 -39 -718 -196 -981 -470 -290 -301 -474 -680 -556
-1143 -34 -196 -44 -554 -19 -735 51 -365 178 -688 389 -985 34 -47 120 -144
191 -216 187 -186 373 -306 618 -398 230 -86 392 -107 793 -105 298 1 301 1
390 -26 129 -38 225 -86 438 -219 310 -193 431 -246 565 -246 51 0 200 34 215
49 5 5 -44 51 -115 108 -147 119 -192 167 -226 242 -21 44 -26 71 -26 126 1
124 43 187 272 409 l143 140 -32 10 c-47 16 -74 58 -74 116 0 80 58 139 144
148 47 4 53 2 86 -31 19 -19 35 -44 35 -56 0 -32 12 -26 71 37 141 152 248
343 319 570 28 90 60 202 70 250 95 437 11 1006 -200 1360 -79 132 -151 221
-278 344 -185 178 -380 301 -678 427 -382 161 -708 244 -1125 286 -137 14
-338 18 -429 8z m2400 -2199 c0 -10 -161 -848 -166 -866 -5 -15 -18 -18 -85
-18 -65 0 -79 3 -79 15 0 9 18 205 40 436 22 231 40 425 40 430 0 5 56 9 125
9 69 0 125 -3 125 -6z m-506 -58 c50 -21 76 -60 76 -116 0 -112 -114 -182
-216 -134 -94 45 -83 196 16 246 42 22 79 23 124 4z m-1520 -435 c120 -59 177
-152 184 -299 10 -204 -78 -357 -254 -439 -55 -26 -68 -28 -184 -28 -145 0
-186 13 -265 86 -76 70 -98 125 -103 249 -3 88 -1 115 18 169 67 200 223 304
442 297 86 -3 105 -7 162 -35z m581 -3 c-18 -84 -56 -402 -52 -441 5 -60 33
-98 83 -115 78 -28 174 23 214 113 10 22 30 123 45 225 14 102 28 197 31 213
l6 27 107 0 107 0 -55 -390 -56 -390 -83 0 -84 0 4 50 c1 28 1 50 -3 50 -3 0
-20 -16 -39 -35 -48 -49 -123 -75 -219 -75 -115 0 -188 32 -235 102 -58 85
-61 169 -17 472 17 114 31 210 31 212 0 2 50 4 110 4 109 0 110 0 105 -22z
m941 -5 c-3 -16 -26 -176 -51 -358 -25 -181 -48 -345 -51 -362 l-6 -33 -109 0
c-108 0 -109 0 -104 23 5 23 105 734 105 748 0 5 50 9 111 9 l111 0 -6 -27z"/>
<path d="M2011 1908 c-113 -20 -191 -154 -161 -278 15 -63 42 -97 94 -121 52
-24 100 -24 151 0 82 38 127 115 128 216 1 127 -89 205 -212 183z"/>
</g>
</svg>
